<svg width="18.960938" height="14.989990" viewBox="0 0 18.9609 14.99" fill="none" xmlns="http://www.w3.org/2000/svg" xmlns:xlink="http://www.w3.org/1999/xlink">
	<desc>
			Created with Pixso.
	</desc>
	<defs/>
	<path id="path" d="M14.56 2L16.48 4.65L9.47 12.25L2.46 4.66L4.38 2.01L14.56 2ZM15.17 0L3.77 0C3.65 0 3.52 0.03 3.41 0.08C3.31 0.15 3.21 0.22 3.14 0.32L0.08 4.53C0.02 4.59 0 4.69 0 4.79C0 4.88 0.03 4.96 0.1 5.04L9.18 14.87C9.18 14.87 9.26 14.93 9.32 14.96C9.36 14.98 9.42 14.99 9.48 14.99C9.52 14.99 9.58 14.98 9.64 14.96C9.68 14.93 9.74 14.91 9.76 14.87L18.84 5.04C18.91 4.96 18.94 4.88 18.96 4.79C18.96 4.69 18.93 4.6 18.88 4.53L15.82 0.32C15.75 0.22 15.65 0.14 15.53 0.08C15.42 0.03 15.3 0 15.17 0Z" fill="#AFEB0F" fill-opacity="1.000000" fill-rule="nonzero"/>
</svg>
