<svg width="21.636719" height="25.009995" viewBox="0 0 21.6367 25.01" fill="none" xmlns="http://www.w3.org/2000/svg" xmlns:xlink="http://www.w3.org/1999/xlink">
	<desc>
			Created with Pixso.
	</desc>
	<defs/>
	<path id="path" d="M21.63 24.17L19.73 6.08C19.69 5.7 19.37 5.41 18.99 5.41L15.42 5.41L15.42 4.6C15.42 3.97 15.29 3.36 15.06 2.81C14.71 1.98 14.13 1.28 13.39 0.79C13.02 0.54 12.62 0.35 12.18 0.21C11.75 0.08 11.29 0 10.81 0C10.18 0 9.57 0.13 9.02 0.36C8.19 0.71 7.49 1.28 7 2.03C6.75 2.39 6.56 2.8 6.42 3.24C6.29 3.67 6.21 4.13 6.21 4.61L6.21 5.42L2.64 5.42C2.26 5.42 1.94 5.7 1.9 6.09L0 24.18C-0.02 24.39 0.05 24.6 0.19 24.76C0.33 24.92 0.53 25.01 0.74 25.01L20.89 25.01C21.1 25.01 21.3 24.92 21.44 24.76C21.58 24.6 21.65 24.38 21.63 24.17ZM7.7 4.59C7.7 4.17 7.79 3.75 7.94 3.38C8.18 2.82 8.57 2.34 9.07 2.01C9.32 1.84 9.59 1.71 9.88 1.62C10.17 1.53 10.48 1.48 10.81 1.48C11.24 1.48 11.65 1.57 12.02 1.73C12.58 1.97 13.06 2.35 13.39 2.86C13.56 3.11 13.69 3.38 13.78 3.67C13.87 3.95 13.92 4.27 13.92 4.59L13.92 5.4L7.69 5.4L7.7 4.59ZM1.57 23.51L3.31 6.89L6.21 6.89L6.21 8.53C6.21 8.95 6.54 9.28 6.95 9.28C7.36 9.28 7.69 8.95 7.69 8.53L7.69 6.89L13.92 6.89L13.92 8.53C13.92 8.95 14.25 9.28 14.66 9.28C15.07 9.28 15.4 8.95 15.4 8.53L15.4 6.89L18.3 6.89L20.04 23.51L1.57 23.51Z" fill="#292D30" fill-opacity="1.000000" fill-rule="nonzero"/>
</svg>
