<svg width="22.480469" height="20.010010" viewBox="0 0 22.4805 20.01" fill="none" xmlns="http://www.w3.org/2000/svg" xmlns:xlink="http://www.w3.org/1999/xlink">
	<desc>
			Created with Pixso.
	</desc>
	<defs/>
	<path id="path" d="M16.19 2C17.36 2 18.44 2.46 19.23 3.31C20.03 4.18 20.48 5.41 20.48 6.75C20.48 8.18 19.92 9.46 18.71 10.95C17.46 12.46 15.57 14.06 13.35 15.95C12.71 16.5 11.99 17.12 11.24 17.77C10.49 17.12 9.75 16.5 9.1 15.93C6.91 14.06 5.01 12.46 3.76 10.95C2.55 9.46 2 8.18 2 6.75C2 5.41 2.44 4.18 3.25 3.31C4.02 2.45 5.1 2 6.27 2C7.14 2 7.89 2.26 8.58 2.8C8.97 3.08 9.31 3.44 9.61 3.88L11.24 6.12L12.85 3.88C13.16 3.44 13.51 3.08 13.89 2.8C14.58 2.26 15.33 2 16.19 2ZM16.19 0C14.9 0 13.71 0.41 12.66 1.21C12.14 1.63 11.66 2.13 11.24 2.7C10.82 2.13 10.33 1.63 9.81 1.21C8.75 0.41 7.58 0 6.27 0C4.53 0 2.94 0.69 1.77 1.95C0.63 3.19 0 4.91 0 6.76C0 8.6 0.71 10.4 2.23 12.24C3.58 13.88 5.55 15.55 7.81 17.48C8.58 18.14 9.46 18.89 10.36 19.68C10.6 19.89 10.91 20.01 11.24 20.01C11.56 20.01 11.86 19.89 12.1 19.68C13.01 18.87 13.9 18.14 14.66 17.48C16.92 15.55 18.89 13.88 20.25 12.24C21.76 10.4 22.48 8.66 22.48 6.76C22.48 4.85 21.84 3.2 20.69 1.95C19.53 0.69 17.93 0 16.19 0Z" fill="#AFEB0F" fill-opacity="1.000000" fill-rule="nonzero"/>
</svg>
