<?xml version="1.0" encoding="UTF-8"?>
<svg id="_Слой_2" data-name="Слой 2" xmlns="http://www.w3.org/2000/svg" viewBox="0 0 750 67.75">
  <defs>
    <style>
      .cls-1 {
        fill: #292d30;
      }

      .cls-2 {
        fill: #afeb0f;
      }
    </style>
  </defs>
  <g id="Layer_1" data-name="Layer 1">
    <g>
      <polygon class="cls-1" points="405.42 67.3 393.75 .04 369 .04 369 67.75 382.09 67.75 382.09 .54 393.94 67.75 416.89 67.75 428.67 1 428.67 67.75 441.66 67.75 441.66 .04 417.04 .04 405.42 67.3"/>
      <path class="cls-1" d="M468.65.04l-20.09,67.72h14.32l5.23-18.98h26.86l5.33,18.98h14.37L494.18.04h-25.52ZM471.17,37.68h0S481.42.5,481.42.5l10.44,37.18h-20.69Z"/>
      <path class="cls-1" d="M570.13,51.44c-2.16-7.12-4.51-12.23-10.61-14.13,7.04-1.99,13.05-7.87,13.05-18.02,0-11.57-9.2-19.25-24.6-19.25h-26.38v67.63h13.8v-25.42h7.14c8.26,0,11.36,3.89,13.52,10.15,2.06,5.79,3.66,11.57,5.73,15.36h13.99v-.48c-2.35-4.27-3.75-9.77-5.63-15.84h0ZM547.22,31.05h-11.83V11.22h11.64c7.79,0,12.02,3.98,12.02,9.77s-4.41,10.05-11.83,10.05Z"/>
      <polygon class="cls-1" points="622.04 .04 596.61 31.01 596.61 0 582.67 0 582.67 67.72 596.61 67.72 596.61 33.54 622.62 67.75 639.77 67.75 611.71 32.51 639.77 .04 622.04 .04"/>
      <polygon class="cls-1" points="660.47 39.4 688.83 39.4 688.83 27.83 660.47 27.83 660.47 11.89 690.8 11.89 690.8 .04 646.67 .04 646.67 67.75 691.08 67.75 691.08 55.9 660.47 55.9 660.47 39.4"/>
      <polygon class="cls-1" points="697.7 .04 697.7 11.89 716.95 11.89 716.95 67.75 730.75 67.75 730.75 11.89 750 11.89 750 .04 697.7 .04"/>
      <path class="cls-1" d="M24.98.04H0v67.72h13.8v-24h11.08c14.18,0,25.26-9.67,25.26-22.38S40.75.04,24.98.04ZM23.94,32.28h-10.14V11.61h10.24c7.14,0,12.39,2.84,12.39,10.05s-5.35,10.62-12.49,10.62Z"/>
      <rect class="cls-1" x="131.26" y=".04" width="13.8" height="67.72"/>
      <polygon class="cls-1" points="203.27 26.59 203.27 .04 151.96 .04 151.96 11.61 201.38 11.61 151.96 40.74 151.96 67.75 203.27 67.75 203.27 56.18 152.89 56.18 203.27 26.59"/>
      <polygon class="cls-1" points="327.86 66.92 310.41 .04 283.46 .04 283.46 67.75 297.03 67.75 297.03 1.13 314.61 67.75 341.42 67.75 341.42 .04 327.86 .04 327.86 66.92"/>
      <path class="cls-1" d="M90.75.04C69.32.04,57.04,15.88,57.04,33.9s12.28,33.86,33.7,33.86,33.61-15.84,33.61-33.86S112.17.04,90.75.04ZM112.1,51.02h-34.25l-8.56-8.56v-25.69h34.25l8.56,8.56v25.69Z"/>
      <path class="cls-1" d="M242.95.04c-21.42,0-33.7,15.85-33.7,33.86s12.28,33.86,33.7,33.86,33.61-15.84,33.61-33.86S264.37.04,242.95.04ZM264.31,42.46l-8.56,8.56h-34.25v-25.69l8.56-8.56h34.25v25.69Z"/>
    </g>
    <polygon class="cls-2" points="233.52 23.65 228.4 28.77 228.4 44.14 252.29 44.14 257.41 39.02 257.41 23.65 233.52 23.65"/>
    <polygon class="cls-2" points="100.08 23.65 105.2 28.77 105.2 44.14 81.32 44.14 76.2 39.02 76.2 23.65 100.08 23.65"/>
  </g>
</svg>